<?xml version="1.0" encoding="utf-8"?><!-- Uploaded to: SVG Repo, www.svgrepo.com, Generator: SVG Repo Mixer Tools -->
<svg width="800px" height="800px" viewBox="11.38 23.52 145.24 145.24" fill="none" xmlns="http://www.w3.org/2000/svg" xmlns:xlink="http://www.w3.org/1999/xlink">
<path d="M138 108C138 135.614 113.823 158 84 158C54.1766 158 30 135.614 30 108C30 80.3858 57.7431 58 84 58C110.257 58 138 80.3858 138 108Z" fill="#F0F0F0"/>
<path d="M84 46C53.6243 46 29 70.0665 29 99.7541V122.04C29 128.093 34.0205 133 40.2136 133C46.4067 133 51.4272 128.093 51.4272 122.04V112.982L51.4272 122.562C51.4272 128.327 56.2086 133 62.1068 133C68.005 133 72.7864 128.327 72.7864 122.562L72.7864 112.982V122.04C72.7864 128.093 77.8069 133 84 133C90.1832 133 95.1976 128.109 95.2136 122.069V122.562C95.2136 128.327 99.995 133 105.893 133C111.791 133 116.573 128.327 116.573 122.562L116.573 122.04C116.573 128.093 121.593 133 127.786 133C133.98 133 139 128.093 139 122.04V104.143C139 104.139 139 104.134 139 104.13V99.7541C139 70.0665 114.376 46 84 46Z" fill="#FCFCFC"/>
<circle cx="50" cy="93.8862" r="8" fill="#FFCEB9"/>
<circle cx="118" cy="93.8862" r="8" fill="#FFCEB9"/>
<circle cx="59.5" cy="84.5" r="7.5" fill="#525151"/>
<circle r="2.34375" transform="matrix(-1 0 0 1 62.7812 81.1145)" fill="white"/>
<circle r="1.40625" transform="matrix(-1 0 0 1 59.0313 84.8645)" fill="white"/>
<circle cx="109.5" cy="84.5" r="7.5" fill="#525151"/>
<circle r="2.34375" transform="matrix(-1 0 0 1 112.781 81.1145)" fill="white"/>
<circle r="1.40625" transform="matrix(-1 0 0 1 109.031 84.8645)" fill="white"/>
<path fill-rule="evenodd" clip-rule="evenodd" d="M84.746 106.549C83.0991 110.035 80.1096 112.302 77.3138 111.888C73.874 111.379 72.03 107.006 73.195 102.121C74.36 97.2363 78.0929 93.6889 81.5327 94.1979C82.8954 94.3995 84.0077 95.2076 84.7816 96.4136C85.5536 95.2428 86.6506 94.4595 87.9892 94.2615C91.4289 93.7525 95.1619 97.2999 96.3269 102.185C97.4919 107.07 95.6478 111.442 92.2081 111.951C89.3953 112.368 86.3864 110.071 84.746 106.549Z" fill="#ED653B"/>
<path d="M73.7559 94.4498C71.8082 92.8604 71.7922 89.8897 73.7225 88.2793L82.2965 81.1266C83.7746 79.8935 85.9213 79.8881 87.4056 81.1136L96.0685 88.2662C98.0198 89.8772 98.0037 92.8725 96.0352 94.4625L87.372 101.459C85.8999 102.649 83.7958 102.643 82.3297 101.447L73.7559 94.4498Z" fill="#FFD500"/>
<g style="mix-blend-mode:multiply">
<path fill-rule="evenodd" clip-rule="evenodd" d="M97.4553 92.0802C94.3116 93.8887 90.0449 95 85.3457 95C80.155 95 75.4921 93.6441 72.2873 91.4904C72.3255 92.5931 72.8156 93.6825 73.7559 94.4498L82.3297 101.447C83.7958 102.643 85.8999 102.649 87.3721 101.459L96.0352 94.4625C96.8163 93.8315 97.29 92.9793 97.4553 92.0802Z" fill="#FFD500" fill-opacity="0.5"/>
</g>
<path d="M87.0823 148.075C86.5369 148.307 85.9182 148.429 85.2884 148.429H83.6532C83.0234 148.429 82.4047 148.307 81.8593 148.075L68.4542 142.381C65.9422 141.314 62.8326 142.77 63.016 144.899C63.5164 150.709 63.5064 155.29 63.0077 161.1C62.8251 163.227 65.9313 164.679 68.4406 163.613L82.3831 157.691C82.9285 157.459 83.5472 157.337 84.177 157.337H84.7646C85.3944 157.337 86.0131 157.459 86.5585 157.691L100.569 163.642C103.065 164.702 106.158 163.271 105.994 161.154C105.541 155.303 105.52 150.705 105.977 144.857C106.142 142.735 103.043 141.296 100.541 142.358L87.0823 148.075Z" fill="#ED653B"/>
<g style="mix-blend-mode:multiply">
<path fill-rule="evenodd" clip-rule="evenodd" d="M63.3865 153C63.3842 155.597 63.257 158.195 63.0077 161.1C62.8251 163.227 65.9313 164.679 68.4406 163.613L82.3831 157.691C82.9285 157.459 83.5472 157.337 84.177 157.337H84.7646C85.3944 157.337 86.0131 157.459 86.5585 157.691L100.569 163.642C103.065 164.702 106.158 163.271 105.994 161.154C105.767 158.227 105.649 155.614 105.644 153H63.3865Z" fill="#ED653B" fill-opacity="0.45"/>
</g>
<path fill-rule="evenodd" clip-rule="evenodd" d="M84.3033 61.4853C80.5776 63.8728 75.5666 63.4378 72.3093 60.1805L63.4307 51.3019C59.6714 47.5425 59.6714 41.4475 63.4307 37.6881C66.6227 34.4961 71.4986 34.0144 75.1989 36.2429C76.0232 31.7636 79.9483 28.37 84.666 28.37C89.2568 28.37 93.097 31.5836 94.0599 35.884C97.6654 34.0791 102.168 34.6804 105.176 37.6881C108.935 41.4475 108.935 47.5425 105.176 51.3019L96.2973 60.1805C93.04 63.4378 88.029 63.8728 84.3033 61.4853Z" fill="#ED653B"/>
<g style="mix-blend-mode:multiply">
<path fill-rule="evenodd" clip-rule="evenodd" d="M107.541 47.4248C107.089 46.0067 106.301 44.6726 105.176 43.5477C102.168 40.54 97.6654 39.9386 94.0599 41.7436C93.097 37.4432 89.2568 34.2296 84.666 34.2296C79.9483 34.2296 76.0232 37.6232 75.1989 42.1025C71.4986 39.874 66.6227 40.3557 63.4307 43.5477C62.3058 44.6726 61.5175 46.0067 61.0658 47.4248C60.008 44.1039 60.7963 40.3225 63.4307 37.6881C66.6227 34.4961 71.4986 34.0144 75.1989 36.2429C76.0232 31.7636 79.9483 28.37 84.666 28.37C89.2568 28.37 93.097 31.5836 94.0599 35.884C97.6654 34.0791 102.168 34.6804 105.176 37.6881C107.81 40.3225 108.599 44.1039 107.541 47.4248Z" fill="#ED653B" fill-opacity="0.5"/>
</g>
</svg>
